<svg width="60" height="60" viewBox="0 0 60 60" fill="none" xmlns="http://www.w3.org/2000/svg">
<circle cx="30" cy="30" r="30" transform="rotate(90 30 30)" fill="#27BEEC"/>
<g clip-path="url(#clip0_1659_58)">
<path d="M28.8296 17.4994L15.4795 31.5173C15.1705 31.8415 15.0002 32.2743 15.0002 32.7358C15.0002 33.1973 15.1705 33.6301 15.4795 33.9543L16.4624 34.9866C17.1029 35.6584 18.1439 35.6584 18.7834 34.9866L29.994 23.2155L41.2171 34.9997C41.5261 35.3239 41.9381 35.5029 42.3773 35.5029C42.8171 35.5029 43.229 35.3239 43.5383 34.9997L44.521 33.9674C44.83 33.6429 45.0002 33.2104 45.0002 32.7489C45.0002 32.2874 44.83 31.8546 44.521 31.5304L31.1586 17.4994C30.8486 17.1744 30.4347 16.9959 29.9948 16.997C29.553 16.9959 29.1394 17.1744 28.8296 17.4994Z" fill="white"/>
</g>
<defs>
<clipPath id="clip0_1659_58">
<rect width="31.5" height="30" fill="white" transform="translate(15.0002 42) rotate(-90)"/>
</clipPath>
</defs>
</svg>
