<svg width="30" height="30" viewBox="0 0 30 30" fill="none" xmlns="http://www.w3.org/2000/svg">
<mask id="path-1-inside-1_1461_551" fill="white">
<path d="M3.75 7.5H26.25V22.5H3.75V7.5ZM15 11.25C15.9946 11.25 16.9484 11.6451 17.6517 12.3483C18.3549 13.0516 18.75 14.0054 18.75 15C18.75 15.9946 18.3549 16.9484 17.6517 17.6517C16.9484 18.3549 15.9946 18.75 15 18.75C14.0054 18.75 13.0516 18.3549 12.3483 17.6517C11.6451 16.9484 11.25 15.9946 11.25 15C11.25 14.0054 11.6451 13.0516 12.3483 12.3483C13.0516 11.6451 14.0054 11.25 15 11.25ZM8.75 10C8.75 10.663 8.48661 11.2989 8.01777 11.7678C7.54893 12.2366 6.91304 12.5 6.25 12.5V17.5C6.91304 17.5 7.54893 17.7634 8.01777 18.2322C8.48661 18.7011 8.75 19.337 8.75 20H21.25C21.25 19.337 21.5134 18.7011 21.9822 18.2322C22.4511 17.7634 23.087 17.5 23.75 17.5V12.5C23.087 12.5 22.4511 12.2366 21.9822 11.7678C21.5134 11.2989 21.25 10.663 21.25 10H8.75Z"/>
</mask>
<path d="M3.75 7.5V6.3H2.55V7.5H3.75ZM26.25 7.5H27.45V6.3H26.25V7.5ZM26.25 22.5V23.7H27.45V22.5H26.25ZM3.75 22.5H2.55V23.7H3.75V22.5ZM8.75 10V8.8H7.55V10H8.75ZM6.25 12.5V11.3H5.05V12.5H6.25ZM6.25 17.5H5.05V18.7H6.25V17.5ZM8.75 20H7.55V21.2H8.75V20ZM21.25 20V21.2H22.45V20H21.25ZM23.75 17.5V18.7H24.95V17.5H23.75ZM23.75 12.5H24.95V11.3H23.75V12.5ZM21.25 10H22.45V8.8H21.25V10ZM3.75 8.7H26.25V6.3H3.75V8.7ZM25.05 7.5V22.5H27.45V7.5H25.05ZM26.25 21.3H3.75V23.7H26.25V21.3ZM4.95 22.5V7.5H2.55V22.5H4.95ZM15 12.45C15.6763 12.45 16.3249 12.7187 16.8031 13.1969L18.5002 11.4998C17.5719 10.5715 16.3128 10.05 15 10.05V12.45ZM16.8031 13.1969C17.2813 13.6751 17.55 14.3237 17.55 15H19.95C19.95 13.6872 19.4285 12.4281 18.5002 11.4998L16.8031 13.1969ZM17.55 15C17.55 15.6763 17.2813 16.3249 16.8031 16.8031L18.5002 18.5002C19.4285 17.5719 19.95 16.3128 19.95 15H17.55ZM16.8031 16.8031C16.3249 17.2813 15.6763 17.55 15 17.55V19.95C16.3128 19.95 17.5719 19.4285 18.5002 18.5002L16.8031 16.8031ZM15 17.55C14.3237 17.55 13.6751 17.2813 13.1969 16.8031L11.4998 18.5002C12.4281 19.4285 13.6872 19.95 15 19.95V17.55ZM13.1969 16.8031C12.7187 16.3249 12.45 15.6763 12.45 15H10.05C10.05 16.3128 10.5715 17.5719 11.4998 18.5002L13.1969 16.8031ZM12.45 15C12.45 14.3237 12.7187 13.6751 13.1969 13.1969L11.4998 11.4998C10.5715 12.4281 10.05 13.6872 10.05 15H12.45ZM13.1969 13.1969C13.6751 12.7187 14.3237 12.45 15 12.45V10.05C13.6872 10.05 12.4281 10.5715 11.4998 11.4998L13.1969 13.1969ZM7.55 10C7.55 10.3448 7.41304 10.6754 7.16924 10.9192L8.8663 12.6163C9.56018 11.9224 9.95 10.9813 9.95 10H7.55ZM7.16924 10.9192C6.92544 11.163 6.59478 11.3 6.25 11.3V13.7C7.2313 13.7 8.17241 13.3102 8.8663 12.6163L7.16924 10.9192ZM5.05 12.5V17.5H7.45V12.5H5.05ZM6.25 18.7C6.59478 18.7 6.92544 18.837 7.16924 19.0808L8.8663 17.3837C8.17241 16.6898 7.2313 16.3 6.25 16.3V18.7ZM7.16924 19.0808C7.41304 19.3246 7.55 19.6552 7.55 20H9.95C9.95 19.0187 9.56018 18.0776 8.8663 17.3837L7.16924 19.0808ZM8.75 21.2H21.25V18.8H8.75V21.2ZM22.45 20C22.45 19.6552 22.587 19.3246 22.8308 19.0808L21.1337 17.3837C20.4398 18.0776 20.05 19.0187 20.05 20H22.45ZM22.8308 19.0808C23.0746 18.837 23.4052 18.7 23.75 18.7V16.3C22.7687 16.3 21.8276 16.6898 21.1337 17.3837L22.8308 19.0808ZM24.95 17.5V12.5H22.55V17.5H24.95ZM23.75 11.3C23.4052 11.3 23.0746 11.163 22.8308 10.9192L21.1337 12.6163C21.8276 13.3102 22.7687 13.7 23.75 13.7V11.3ZM22.8308 10.9192C22.587 10.6754 22.45 10.3448 22.45 10H20.05C20.05 10.9813 20.4398 11.9224 21.1337 12.6163L22.8308 10.9192ZM21.25 8.8H8.75V11.2H21.25V8.8Z" fill="#FAAD14" mask="url(#path-1-inside-1_1461_551)"/>
</svg>
