<svg width="26" height="24" viewBox="0 0 26 24" fill="none" xmlns="http://www.w3.org/2000/svg">
<path d="M18.7038 8.78893L18.3012 8.61814L17.9913 8.92667L4.21346 22.6441L2.4945 20.9251L11.2968 12.1347L11.7557 11.6764L11.2984 11.2165L9.08586 8.99148L8.63268 8.53573L8.17185 8.98376L7.725 9.4182L6.3656 8.0963L5.82718 7.57274L5.4862 7.22932L4.19256 5.92644L8.18457 1.93442C9.23749 0.881501 10.8443 0.745832 12.0399 1.52742L9.89748 3.7206L9.44696 4.18179L9.90447 4.63606L11.2041 5.92644L10.7778 6.35268L10.3169 6.81359L10.7791 7.27321L13.0166 9.49821L13.4838 9.96273L13.942 9.48941L16.217 7.13941L16.5165 6.82995L16.3483 6.43345C16.218 6.12617 16.15 5.6945 16.15 5.2873C16.15 3.18258 17.8101 1.5373 19.875 1.5373C20.1721 1.5373 20.4483 1.57025 20.7077 1.63534L18.0528 4.29019L17.5932 4.7498L18.0528 5.20942L19.9278 7.08442L20.3875 7.54404L20.8471 7.08442L23.5032 4.42834C23.5674 4.68706 23.6 4.9685 23.6 5.2873C23.6 7.32467 21.9571 8.97481 19.875 8.97481C19.4273 8.97481 19.0016 8.91525 18.7038 8.78893ZM5.26245 8.5623V11.8681L5.04006 12.0905L1.5541 8.56489L1.78169 8.33731H5.02495H5.26245V8.5623ZM24.4486 20.9302L22.7195 22.7002L16.1388 16.1195L17.8679 14.3495L24.4486 20.9302Z" stroke="#FAAD14" stroke-width="1.3"/>
</svg>
