<svg width="14" height="11" viewBox="0 0 14 11" fill="none" xmlns="http://www.w3.org/2000/svg">
<path d="M0.295113 0.121657C0.411324 0.0419693 0.859566 -0.18049 1.23808 0.297634L3.80136 4.04295L6.51406 1.42654C6.65683 1.29041 6.85273 1.21736 7.05195 1.2406C7.24785 1.26052 7.42715 1.36345 7.54336 1.52615L12.0424 7.97752L12.2051 5.81931C12.2449 5.27146 12.7596 5.18181 12.9322 5.19509C13.3041 5.22498 13.5863 5.54705 13.5564 5.92224L13.2709 9.71736C13.2443 10.0892 12.9189 10.3715 12.5437 10.3416L8.74863 10.056C8.37675 10.0295 8.09453 9.70408 8.12441 9.32888C8.15097 8.95701 8.47304 8.6781 8.85156 8.70466L11.0098 8.86736L6.88593 2.9572L4.1666 5.58025C4.02382 5.7197 3.82461 5.78943 3.62871 5.76619C3.42949 5.74627 3.25019 5.64002 3.1373 5.474L0.119137 1.06463C-0.0933634 0.755836 -0.013676 0.334157 0.295113 0.121657Z" fill="#FF5C5C"/>
</svg>
