<svg width="14" height="11" viewBox="0 0 14 11" fill="none" xmlns="http://www.w3.org/2000/svg">
<path d="M0.295113 10.2221C0.411324 10.3018 0.859566 10.5242 1.23808 10.0461L3.80136 6.3008L6.51406 8.91721C6.65683 9.05334 6.85273 9.12639 7.05195 9.10315C7.24785 9.08323 7.42715 8.9803 7.54336 8.8176L12.0424 2.36623L12.2051 4.52444C12.2449 5.07229 12.7596 5.16194 12.9322 5.14866C13.3041 5.11877 13.5863 4.7967 13.5564 4.42151L13.2709 0.62639C13.2443 0.254514 12.9189 -0.0277119 12.5437 0.00217089L8.74863 0.287718C8.37675 0.31428 8.09453 0.639671 8.12441 1.01487C8.15097 1.38674 8.47304 1.66565 8.85156 1.63909L11.0098 1.47639L6.88593 7.38655L4.1666 4.7635C4.02382 4.62405 3.82461 4.55432 3.62871 4.57756C3.42949 4.59748 3.25019 4.70373 3.1373 4.86975L0.119137 9.27912C-0.0933634 9.58791 -0.013676 10.0096 0.295113 10.2221Z" fill="#3ED75F"/>
</svg>
