<svg width="34" height="35" viewBox="0 0 34 35" fill="none" xmlns="http://www.w3.org/2000/svg">
<path d="M29.0209 5.12559C25.8099 1.82036 21.5409 0 17 0C12.4591 0 8.19007 1.82036 4.97914 5.12559C1.76835 8.43096 0 12.8256 0 17.5C0 22.1744 1.76835 26.569 4.97914 29.8744C8.19007 33.1796 12.4591 35 17 35C21.5409 35 25.8099 33.1796 29.0209 29.8744C32.2317 26.569 34 22.1744 34 17.5C34 12.8256 32.2317 8.43096 29.0209 5.12559ZM31.8969 17.5C31.8969 19.905 31.3557 22.1821 30.3931 24.21L22.9646 19.795C23.2249 19.0803 23.3677 18.3071 23.3677 17.5C23.3677 14.2542 21.064 11.5524 18.0515 11.0349V2.20363C25.7768 2.76096 31.8969 9.40822 31.8969 17.5ZM12.7354 17.5C12.7354 15.0793 14.6485 13.11 17 13.11C19.3515 13.11 21.2646 15.0794 21.2646 17.5C21.2646 19.9206 19.3515 21.89 17 21.89C14.6485 21.89 12.7354 19.9207 12.7354 17.5ZM15.9485 2.20363V11.0348C12.9359 11.5524 10.6323 14.2542 10.6323 17.4999C10.6323 18.307 10.7751 19.0803 11.0354 19.7949L3.60694 24.21C2.64429 22.1821 2.10309 19.905 2.10309 17.5C2.10309 9.40822 8.22316 2.76096 15.9485 2.20363ZM17 32.835C11.8726 32.835 7.34211 30.1545 4.66101 26.0834L12.0892 21.6685C13.2581 23.1252 15.0255 24.055 16.9999 24.055C18.9744 24.055 20.7418 23.1252 21.9107 21.6685L29.3388 26.0834C26.6579 30.1545 22.1274 32.835 17 32.835Z" fill="#F99D1D"/>
</svg>
