<svg width="37" height="37" viewBox="0 0 37 37" fill="none" xmlns="http://www.w3.org/2000/svg">
<path d="M36.5933 21.2589C35.7785 18.2181 33.8284 15.6766 31.1021 14.1025C30.8225 13.9412 30.5364 13.7931 30.2459 13.6557C30.2719 13.3367 30.2858 13.0143 30.2858 12.6886C30.2858 6.18992 24.9988 0.902832 18.5 0.902832C12.0012 0.902832 6.71423 6.18992 6.71423 12.6886C6.71423 13.0143 6.72811 13.3366 6.75412 13.6557C6.46359 13.7931 6.17748 13.9412 5.89793 14.1025C3.17163 15.6766 1.22142 18.2181 0.406652 21.2589C-0.408119 24.2998 0.0100215 27.4759 1.58411 30.2022C3.68328 33.8381 7.59818 36.0968 11.8008 36.0968C13.8583 36.0968 15.8926 35.5501 17.6837 34.516C17.9653 34.3534 18.2372 34.1805 18.5 33.9988C18.763 34.1805 19.0348 34.3534 19.3163 34.516C21.1075 35.5501 23.1418 36.0968 25.1993 36.0968C29.402 36.0968 33.3168 33.8381 35.416 30.2022C36.99 27.4759 37.4081 24.2998 36.5933 21.2589ZM9.00248 12.6886C9.00248 7.45166 13.2631 3.19109 18.5 3.19109C23.737 3.19109 27.9975 7.45166 27.9975 12.6886C27.9975 12.7452 27.9964 12.8014 27.9954 12.8577C27.0885 12.6365 26.1564 12.5217 25.2191 12.5217C22.7833 12.5217 20.445 13.2818 18.5 14.6277C16.5549 13.2818 14.2167 12.5217 11.7808 12.5217C10.8435 12.5217 9.91138 12.6364 9.00454 12.8577C9.00362 12.8014 9.00248 12.7452 9.00248 12.6886ZM18.5 31.0322C16.659 29.1941 15.6746 26.6874 15.7154 24.1412C16.6086 24.3584 17.5409 24.4744 18.5 24.4744C19.459 24.4744 20.3914 24.3584 21.2845 24.1412C21.3253 26.6873 20.3409 29.1941 18.5 31.0322ZM18.5 22.1861C17.6467 22.1861 16.8196 22.0723 16.0325 21.8603C16.2424 21.0726 16.5575 20.2994 16.9841 19.5606C17.405 18.8315 17.9168 18.1711 18.5 17.5905C19.0832 18.1712 19.5949 18.8315 20.0159 19.5606C20.4425 20.2995 20.7575 21.0726 20.9675 21.8603C20.1803 22.0724 19.3532 22.1861 18.5 22.1861ZM13.8987 20.9945C11.673 19.7566 9.99429 17.6506 9.32299 15.1369C10.1229 14.9211 10.9496 14.8099 11.7808 14.8099C13.5347 14.8099 15.2257 15.2988 16.6842 16.1761C16.0431 16.8462 15.4762 17.5958 15.0024 18.4164C14.5229 19.247 14.1572 20.1124 13.8987 20.9945ZM21.9976 18.4164C21.5238 17.5959 20.9569 16.8463 20.3158 16.1762C21.7743 15.299 23.4653 14.81 25.2192 14.81C26.0504 14.81 26.8771 14.9211 27.677 15.137C27.0058 17.6506 25.327 19.7567 23.1013 20.9945C22.8428 20.1124 22.4771 19.247 21.9976 18.4164ZM11.8007 33.8085C8.41295 33.8085 5.25745 31.9882 3.56566 29.058C2.29721 26.861 1.9603 24.3016 2.61688 21.8512C3.27345 19.4008 4.84503 17.3526 7.04206 16.0843C7.09072 16.0562 7.14015 16.0296 7.18919 16.0025C8.14126 19.2466 10.4538 21.9144 13.4645 23.3431C13.1964 26.6649 14.3506 30.0017 16.6844 32.4483C16.6363 32.4772 16.5884 32.5063 16.5395 32.5344C15.0957 33.368 13.4571 33.8085 11.8007 33.8085ZM33.4343 29.058C31.7425 31.9883 28.587 33.8085 25.1992 33.8085C23.5428 33.8085 21.9042 33.368 20.4604 32.5344C20.4116 32.5062 20.3636 32.4772 20.3155 32.4482C22.6493 30.0016 23.8035 26.6648 23.5354 23.343C26.5461 21.9143 28.8587 19.2466 29.8107 16.0024C29.8598 16.0296 29.9093 16.0561 29.9579 16.0842C32.1549 17.3526 33.7264 19.4007 34.383 21.8511C35.0396 24.3016 34.7027 26.861 33.4343 29.058Z" fill="#F99D1D"/>
</svg>
