<svg width="35" height="35" viewBox="0 0 35 35" fill="none" xmlns="http://www.w3.org/2000/svg">
<path d="M21.8914 20.8233C22.7779 21.332 23.8035 21.6247 24.8969 21.6247C28.2381 21.6247 30.9563 18.9064 30.9563 15.5653C30.9563 12.2241 28.2381 9.50586 24.8969 9.50586C24.8229 9.50586 24.7495 9.50881 24.6762 9.51148C24.056 7.00433 22.6635 4.73121 20.6858 3.02855C18.4174 1.07555 15.5176 0 12.5206 0C5.61674 0 0 5.61674 0 12.5206C0 19.4245 5.61674 25.0412 12.5206 25.0412C14.5275 25.0412 16.445 24.5804 18.22 23.6716C19.6032 22.9633 20.8562 21.9889 21.8914 20.8233ZM28.7914 15.5652C28.7914 17.7126 27.0443 19.4596 24.8969 19.4596C22.7495 19.4596 21.0025 17.7126 21.0025 15.5652C21.0025 13.4178 22.7495 11.6708 24.8969 11.6708C27.0443 11.6708 28.7914 13.4178 28.7914 15.5652ZM2.16495 12.5206C2.16495 6.81049 6.8105 2.16495 12.5206 2.16495C17.331 2.16495 21.4173 5.39801 22.5621 9.97428C20.3767 10.8903 18.8375 13.0512 18.8375 15.5652C18.8375 17.0335 19.3628 18.3813 20.2349 19.4311C18.2713 21.6315 15.5075 22.8763 12.5206 22.8763C6.8105 22.8763 2.16495 18.2307 2.16495 12.5206Z" fill="#F99D1D"/>
<path d="M11.4382 11.4267L4.68896 11.4379L4.69257 13.6028L13.6031 13.5881V4.69043H11.4382V11.4267Z" fill="#F99D1D"/>
<path d="M24.8969 23.8145C19.3261 23.8145 14.7938 28.3467 14.7938 33.9175V35H35V33.9175C35 28.3467 30.4678 23.8145 24.8969 23.8145ZM17.0323 32.8351C17.5134 29.3222 20.3015 26.5343 23.8144 26.0532V31.0309H25.9794V26.0532C29.4922 26.5342 32.2805 29.3221 32.7615 32.8351H17.0323Z" fill="#F99D1D"/>
</svg>
