<svg width="27" height="35" viewBox="0 0 27 35" fill="none" xmlns="http://www.w3.org/2000/svg">
<path d="M15.1883 11.7436H17.3533C17.3533 9.99472 16.1817 8.51534 14.5826 8.04627V7.3252H12.4176V8.04627C10.8185 8.51527 9.64697 9.99472 9.64697 11.7436C9.64697 13.5649 10.6029 14.87 12.3385 15.4182L12.4176 15.4432V18.8505C12.0477 18.5406 11.8119 18.0755 11.8119 17.5564H9.64697C9.64697 19.3051 10.8185 20.7846 12.4176 21.2537V21.9747H14.5826V21.2537C16.1817 20.7847 17.3533 19.3052 17.3533 17.5564C17.3533 15.735 16.3974 14.43 14.6617 13.8817L14.5826 13.8568V10.4494C14.9525 10.7593 15.1883 11.2243 15.1883 11.7436ZM11.8119 11.7436C11.8119 11.2243 12.0477 10.7593 12.4176 10.4494V13.0897C11.9946 12.8058 11.8119 12.3847 11.8119 11.7436ZM15.1883 17.5564C15.1883 18.0756 14.9525 18.5406 14.5826 18.8506V16.2103C15.0055 16.4942 15.1883 16.9152 15.1883 17.5564Z" fill="#F99D1D"/>
<path d="M26.8183 29.3002V0H0.181885V35H26.8183V32.835H25.375V29.3002H26.8183ZM2.34683 2.16495H24.6533V27.1352H2.34683V2.16495ZM23.21 32.835H2.34683V29.3002H23.21V32.835Z" fill="#F99D1D"/>
</svg>
