<svg width="34" height="34" viewBox="0 0 34 34" fill="none" xmlns="http://www.w3.org/2000/svg">
<path d="M33.1796 1.43913L33.0101 0.990691L32.5617 0.821331C31.1185 0.276324 29.6017 0 28.0532 0C24.6501 0 21.4507 1.32524 19.0443 3.73165L15.6325 7.14339L8.00729 7.51324L1.62524 13.8952L7.12788 15.648L5.09309 17.6827L6.28172 18.8714L3.64836 22.9077L11.0931 30.3525L15.1295 27.7192L16.3181 28.9078L18.3529 26.873L20.1056 32.3757L26.4877 25.9936L26.8575 18.3685L30.2693 14.9567C33.8035 11.4224 34.9459 6.11641 33.1796 1.43913ZM5.59084 12.9311L8.92865 9.5933L13.3994 9.37648L8.81716 13.9587L5.59084 12.9311ZM11.376 27.634L6.36689 22.625L7.81522 20.405L13.5959 26.1857L11.376 27.634ZM24.4076 25.0723L21.0699 28.4101L20.0422 25.1837L24.6244 20.6015L24.4076 25.0723ZM16.3181 25.9064L8.09445 17.6827L20.5449 5.23225C22.5505 3.22675 25.2169 2.1223 28.0532 2.1223C29.182 2.1223 30.2904 2.29824 31.3548 2.64588C32.5894 6.42923 31.5998 10.6247 28.7686 13.456L16.3181 25.9064Z" fill="#F99D1D"/>
<path d="M25.8179 4.99951C24.9676 4.99951 24.1682 5.33066 23.5669 5.93191C22.3257 7.1731 22.3257 9.19276 23.5669 10.434C24.1682 11.0353 24.9677 11.3664 25.8179 11.3664C26.6682 11.3664 27.4677 11.0353 28.0689 10.434C29.3102 9.19283 29.3102 7.17317 28.0689 5.93191C27.4677 5.33066 26.6683 4.99951 25.8179 4.99951ZM26.5683 8.93334C26.3679 9.13376 26.1014 9.24419 25.818 9.24419C25.5346 9.24419 25.2681 9.13376 25.0677 8.93341C24.6539 8.51963 24.6539 7.84644 25.0677 7.43266C25.2681 7.23225 25.5346 7.12189 25.818 7.12189C26.1014 7.12189 26.3679 7.23225 26.5683 7.43266C26.982 7.84637 26.982 8.51963 26.5683 8.93334Z" fill="#F99D1D"/>
<path d="M0.000976562 26.5718L2.40618 24.1665L3.90686 25.6672L1.50166 28.0724L0.000976562 26.5718ZM7.4284 33.9997L5.92772 32.499L8.33293 30.0938L9.83361 31.5945L7.4284 33.9997ZM1.77084 30.623L5.31664 27.0772L6.81732 28.5779L3.27152 32.1237L1.77084 30.623Z" fill="#F99D1D"/>
</svg>
