<svg width="33" height="35" viewBox="0 0 33 35" fill="none" xmlns="http://www.w3.org/2000/svg">
<path d="M0.151123 23.0622H1.49325V35.0002H11.4983V23.0622H12.8405V8.73438H0.151123V23.0622ZM2.31607 10.8993H5.41325V17.6498H7.5782V10.8993H10.6754V20.8972H9.33325V32.8353H3.6582V20.8973H2.31607V10.8993Z" fill="#F99D1D"/>
<path d="M6.49571 7.28787C8.50499 7.28787 10.1396 5.65319 10.1396 3.64397C10.1396 1.63475 8.50499 0 6.49571 0C4.48642 0 2.85181 1.63468 2.85181 3.6439C2.85181 5.65311 4.48642 7.28787 6.49571 7.28787ZM6.49571 2.16495C7.31124 2.16495 7.97465 2.82843 7.97465 3.6439C7.97465 4.45936 7.31124 5.12285 6.49571 5.12285C5.68017 5.12285 5.01676 4.45936 5.01676 3.6439C5.01676 2.82843 5.68017 2.16495 6.49571 2.16495Z" fill="#F99D1D"/>
<path d="M29.2477 7.20228C31.2334 7.20228 32.8488 5.58679 32.8488 3.60118C32.8489 1.61548 31.2334 0 29.2477 0C27.262 0 25.6466 1.61548 25.6466 3.60118C25.6466 5.58679 27.2621 7.20228 29.2477 7.20228ZM29.2477 2.16495C30.0397 2.16495 30.6839 2.80924 30.6839 3.60118C30.6839 4.39311 30.0396 5.03733 29.2477 5.03733C28.4558 5.03733 27.8116 4.39304 27.8116 3.60118C27.8116 2.80924 28.4558 2.16495 29.2477 2.16495Z" fill="#F99D1D"/>
<path d="M29.2477 27.7979C27.262 27.7979 25.6466 29.4133 25.6466 31.399C25.6466 33.3846 27.2621 35.0001 29.2477 35.0001C31.2333 35.0001 32.8488 33.3846 32.8488 31.399C32.8489 29.4133 31.2334 27.7979 29.2477 27.7979ZM29.2477 32.8352C28.4558 32.8352 27.8116 32.1909 27.8116 31.399C27.8116 30.607 28.4558 29.9628 29.2477 29.9628C30.0396 29.9628 30.6839 30.6071 30.6839 31.399C30.6839 32.1909 30.0397 32.8352 29.2477 32.8352Z" fill="#F99D1D"/>
<path d="M29.2477 18.5317C27.262 18.5317 25.6466 20.1472 25.6466 22.1328C25.6466 24.1185 27.2621 25.734 29.2477 25.734C31.2333 25.734 32.8488 24.1185 32.8488 22.1328C32.8489 20.1472 31.2334 18.5317 29.2477 18.5317ZM29.2477 23.5691C28.4558 23.5691 27.8116 22.9248 27.8116 22.1328C27.8116 21.3409 28.4558 20.6967 29.2477 20.6967C30.0396 20.6967 30.6839 21.341 30.6839 22.1328C30.6839 22.9248 30.0397 23.5691 29.2477 23.5691Z" fill="#F99D1D"/>
<path d="M29.2477 9.26611C27.262 9.26611 25.6466 10.8816 25.6466 12.8673C25.6466 14.853 27.2621 16.4684 29.2477 16.4684C31.2333 16.4684 32.8488 14.8529 32.8488 12.8673C32.8489 10.8816 31.2334 9.26611 29.2477 9.26611ZM29.2477 14.3034C28.4558 14.3034 27.8116 13.6592 27.8116 12.8673C27.8116 12.0754 28.4558 11.4311 29.2477 11.4311C30.0396 11.4311 30.6839 12.0754 30.6839 12.8673C30.6839 13.6592 30.0397 14.3034 29.2477 14.3034Z" fill="#F99D1D"/>
<path d="M18.2332 16.4174H15.3661V18.5823H18.2332V32.4811H23.2652V30.3162H20.3982V23.2152H23.2652V21.0503H20.3982V13.9494H23.2652V11.7845H20.3982V4.6835H23.2652V2.51855H18.2332V16.4174Z" fill="#F99D1D"/>
</svg>
