<svg width="52" height="52" viewBox="0 0 52 52" fill="none" xmlns="http://www.w3.org/2000/svg">
<g clip-path="url(#clip0_1_12256)">
<path d="M21.5304 35.382L16.4667 34.0037V32.7037C18.0942 31.5721 19.065 29.7156 19.0667 27.7335V26.8668C19.5453 26.8668 19.9333 26.4787 19.9333 26.0001V23.4001C19.9333 19.5708 16.8293 16.4668 13 16.4668C9.17067 16.4668 6.06667 19.5708 6.06667 23.4001V26.0001C6.06667 26.4787 6.45472 26.8668 6.93333 26.8668V27.7335C6.9346 29.716 7.90579 31.5725 9.53333 32.7045V34.0045L4.46663 35.3828C1.83405 36.1115 0.00804037 38.5042 0 41.2362V50.2668C0 50.7454 0.388053 51.1335 0.866667 51.1335H25.1333C25.6119 51.1335 26 50.7454 26 50.2668V41.2362C25.9915 38.5033 24.1647 36.1103 21.5304 35.382ZM7.8 23.4001C7.8 20.5285 10.1283 18.2001 13 18.2001C15.8717 18.2001 18.2 20.5285 18.2 23.4001V25.1335H17.6304C16.8344 25.1347 16.1396 24.5931 15.9466 23.8203L15.5733 22.3236C15.4921 21.9994 15.2318 21.7506 14.9039 21.6841C14.848 21.6727 14.7905 21.6672 14.7333 21.6668C14.4604 21.6668 14.2035 21.7954 14.0402 22.0134L13.5201 22.707C12.3712 24.2304 10.5752 25.1284 8.66667 25.1335H7.8V23.4001ZM8.66667 27.7335V26.8668C10.8037 26.8621 12.846 25.9857 14.3216 24.4403C14.7439 25.7788 15.9343 26.7284 17.3333 26.8427V27.7335C17.3333 30.1265 15.3931 32.0668 13 32.0668C10.6069 32.0668 8.66667 30.1265 8.66667 27.7335ZM13 33.8001C13.5874 33.7984 14.1714 33.7108 14.7333 33.5403V34.6668C14.7363 34.9152 14.8463 35.1501 15.0359 35.3109L13 37.007L10.9641 35.3117C11.1537 35.1509 11.2641 34.9156 11.2667 34.6668V33.5403C11.8286 33.7108 12.4126 33.7984 13 33.8001ZM24.2667 49.4001H21.6667V41.6001H19.9333V49.4001H6.06667V41.6001H4.33333V49.4001H1.73333V41.2362C1.73968 39.2845 3.04434 37.5753 4.92536 37.0544L9.01325 35.9427L12.4452 38.8025C12.7668 39.0704 13.2332 39.0704 13.5548 38.8025L16.9868 35.9427L21.0721 37.0535C22.954 37.574 24.2595 39.2837 24.2667 41.2362V49.4001Z" fill="#F99D1D"/>
<path d="M32.0666 0.866699C31.588 0.866699 31.2 1.25475 31.2 1.73337V20.8C31.2 21.2786 31.588 21.6667 32.0666 21.6667H51.1333C51.6119 21.6667 51.9999 21.2786 51.9999 20.8C51.9881 9.79616 43.0705 0.878548 32.0666 0.866699ZM32.9333 19.9334V2.61992C42.299 3.0778 49.7888 10.5676 50.2467 19.9334H32.9333Z" fill="#F99D1D"/>
<path d="M47.6668 23.3999H29.4668V5.19992C29.4668 4.72131 29.0788 4.33325 28.6002 4.33325C21.5183 4.35018 14.9726 8.10715 11.3857 14.2132L12.8813 15.0887C16.0005 9.7787 21.583 6.39539 27.7335 6.08732V24.2666C27.7335 24.7452 28.1216 25.1333 28.6002 25.1333H46.7803C46.3059 34.8316 38.3104 42.4552 28.6002 42.4666C28.323 42.4666 28.0454 42.4598 27.7716 42.4484L27.6954 44.1817C27.995 44.194 28.2967 44.1999 28.6002 44.1999C39.604 44.1881 48.5217 35.2705 48.5335 24.2666C48.5335 23.788 48.1454 23.3999 47.6668 23.3999Z" fill="#F99D1D"/>
</g>
<defs>
<clipPath id="clip0_1_12256">
<rect width="52" height="52" fill="white"/>
</clipPath>
</defs>
</svg>
