<svg width="45" height="49" viewBox="0 0 45 49" fill="none" xmlns="http://www.w3.org/2000/svg">
<path d="M20.7023 32.9152L15.8333 31.5369V30.2369C17.3983 29.1053 18.3317 27.2488 18.3333 25.2667V24.4C18.7935 24.4 19.1667 24.0119 19.1667 23.5333V20.9333C19.1667 17.104 16.182 14 12.5 14C8.81795 14 5.83333 17.104 5.83333 20.9333V23.5333C5.83333 24.0119 6.20646 24.4 6.66667 24.4V25.2667C6.66789 27.2493 7.60173 29.1057 9.16667 30.2377V31.5377L4.29484 32.9169C1.76392 33.646 0.00854489 36.0378 0 38.7694V47.8C0 48.2786 0.373128 48.6667 0.833333 48.6667H24.1667C24.6269 48.6667 25 48.2786 25 47.8V38.7694C24.9919 36.0365 23.2353 33.6435 20.7023 32.9152ZM7.5 20.9333C7.5 18.0617 9.73877 15.7333 12.5 15.7333C15.2612 15.7333 17.5 18.0617 17.5 20.9333V22.6667H16.9515C16.1869 22.6667 15.5204 22.1254 15.3349 21.3535L14.9752 19.8568C14.8971 19.5326 14.6468 19.2838 14.3319 19.2174C14.2773 19.2059 14.222 19.2 14.1667 19.2C13.9042 19.2 13.6572 19.3286 13.5002 19.5466L13.0001 20.2402C11.8953 21.764 10.1685 22.662 8.33333 22.6667H7.5V20.9333ZM8.33333 25.2667V24.4C10.3882 24.3958 12.3523 23.5194 13.7708 21.9735C14.1768 23.312 15.3215 24.2616 16.6667 24.3759V25.2667C16.6667 27.6597 14.801 29.6 12.5 29.6C10.199 29.6 8.33333 27.6597 8.33333 25.2667ZM12.5 31.3333C13.0648 31.3316 13.6263 31.244 14.1667 31.0735V32.2C14.1695 32.4484 14.2753 32.6833 14.4576 32.8441L12.5 34.5402L10.5424 32.8449C10.7247 32.6841 10.8309 32.4488 10.8333 32.2V31.0735C11.3737 31.244 11.9352 31.3316 12.5 31.3333ZM23.3333 46.9333H20.8333V39.1333H19.1667V46.9333H5.83333V39.1333H4.16667V46.9333H1.66667V38.7694C1.67277 36.8177 2.92725 35.1085 4.73592 34.5876L8.66658 33.475L11.9666 36.3349C12.2758 36.6023 12.7242 36.6023 13.0334 36.3349L16.3334 33.475L20.2616 34.5867C22.0711 35.1072 23.3264 36.8169 23.3333 38.7694V46.9333Z" fill="#F99D1D"/>
<path d="M27.1852 20.6321C27.3507 20.8441 27.6045 20.9682 27.8737 20.9682H31.612L32.2865 22.9916C32.4055 23.3487 32.7395 23.5893 33.1158 23.5893H38.3578C38.7337 23.5888 39.0673 23.3482 39.1863 22.9916L39.8607 20.9682H43.5999C43.8691 20.9682 44.1229 20.8441 44.2888 20.6321C44.4544 20.42 44.5128 20.1432 44.4475 19.8821L42.7002 12.8927C42.6025 12.5041 42.2531 12.2315 41.8525 12.2315H40.9789V5.33548C40.9789 5.10683 40.8897 4.88755 40.7297 4.72417L36.3613 0.26108C36.1967 0.0938534 35.9719 -0.000425158 35.7368 1.44146e-06C35.5064 0.0123728 35.2867 0.102812 35.1148 0.256814L30.7464 4.64013C30.5831 4.80394 30.4913 5.02577 30.4913 5.25699V12.2315H29.6211C29.2205 12.2315 28.8711 12.5041 28.7734 12.8927L27.0261 19.8821C26.9608 20.1432 27.0197 20.4196 27.1852 20.6321ZM41.1704 13.9788L42.4809 19.2209H40.9789V13.9788H41.1704ZM37.7277 21.8419H33.7459L33.4541 20.9682H38.0187L37.7277 21.8419ZM32.2421 5.61789L35.7317 2.11679L39.2315 5.69297V19.2209H36.6105V12.2315H34.8631V19.2209H32.2421V5.61789ZM30.3032 13.9788H30.4947V19.2209H28.9927L30.3032 13.9788Z" fill="#F99D1D"/>
<path d="M35.7365 9.61047C37.184 9.61047 38.3575 8.43689 38.3575 6.98944C38.3575 5.54198 37.184 4.36841 35.7365 4.36841C34.2891 4.36841 33.1155 5.54198 33.1155 6.98944C33.1155 8.43689 34.2891 9.61047 35.7365 9.61047ZM35.7365 6.11576C36.219 6.11576 36.6102 6.50695 36.6102 6.98944C36.6102 7.47192 36.219 7.86311 35.7365 7.86311C35.254 7.86311 34.8628 7.47192 34.8628 6.98944C34.8628 6.50695 35.254 6.11576 35.7365 6.11576Z" fill="#F99D1D"/>
<path d="M36.3868 32.9098C36.862 32.3804 39.2314 29.6536 39.2314 27.9578C39.2314 26.0279 37.6666 24.4631 35.7366 24.4631C33.8067 24.4631 32.2419 26.0279 32.2419 27.9578C32.2419 29.6536 34.6113 32.3804 35.0865 32.9098C35.2525 33.0945 35.4888 33.1999 35.7366 33.1999C35.9845 33.1999 36.2208 33.0945 36.3868 32.9098ZM33.9893 27.9578C33.9893 26.9929 34.7717 26.2105 35.7366 26.2105C36.7016 26.2105 37.484 26.9929 37.484 27.9578C37.484 28.5146 36.6636 29.8144 35.7366 30.973C34.8079 29.8093 33.9893 28.4996 33.9893 27.9578Z" fill="#F99D1D"/>
<line x1="30.25" y1="47" x2="30.25" y2="32" stroke="#F99D1D" stroke-width="1.5"/>
<line x1="36.25" y1="45" x2="36.25" y2="37" stroke="#F99D1D" stroke-width="1.5"/>
<line x1="42.25" y1="47" x2="42.25" y2="32" stroke="#F99D1D" stroke-width="1.5"/>
</svg>
