<svg width="50" height="52" viewBox="0 0 50 52" fill="none" xmlns="http://www.w3.org/2000/svg">
<path d="M24.8691 36.2484L20.0001 34.8701V33.5701C21.565 32.4386 22.4985 30.5821 22.5001 28.5999V27.7333C22.9603 27.7333 23.3334 27.3452 23.3334 26.8666V24.2666C23.3334 20.4373 20.3488 17.3333 16.6667 17.3333C12.9847 17.3333 10.0001 20.4373 10.0001 24.2666V26.8666C10.0001 27.3452 10.3732 27.7333 10.8334 27.7333V28.5999C10.8346 30.5825 11.7685 32.439 13.3334 33.571V34.871L8.46159 36.2501C5.93066 36.9792 4.17529 39.371 4.16675 42.1027V51.1333C4.16675 51.6119 4.53988 51.9999 5.00008 51.9999H28.3334C28.7936 51.9999 29.1667 51.6119 29.1667 51.1333V42.1027C29.1586 39.3698 27.402 36.9767 24.8691 36.2484ZM11.6667 24.2666C11.6667 21.3949 13.9055 19.0666 16.6667 19.0666C19.428 19.0666 21.6667 21.3949 21.6667 24.2666V25.9999H21.1182C20.3537 25.9999 19.6872 25.4587 19.5016 24.6868L19.1419 23.19C19.0638 22.8659 18.8136 22.617 18.4986 22.5506C18.4441 22.5392 18.3888 22.5333 18.3334 22.5333C18.071 22.5333 17.824 22.6619 17.6669 22.8798L17.1668 23.5734C16.0621 25.0973 14.3352 25.9953 12.5001 25.9999H11.6667V24.2666ZM12.5001 28.5999V27.7333C14.5549 27.729 16.519 26.8526 17.9375 25.3068C18.3436 26.6453 19.4882 27.5949 20.8334 27.7091V28.5999C20.8334 30.993 18.9678 32.9333 16.6667 32.9333C14.3657 32.9333 12.5001 30.993 12.5001 28.5999ZM16.6667 34.6666C17.2315 34.6649 17.793 34.5773 18.3334 34.4068V35.5333C18.3363 35.7817 18.4421 36.0165 18.6243 36.1773L16.6667 37.8734L14.7091 36.1782C14.8914 36.0174 14.9976 35.7821 15.0001 35.5333V34.4068C15.5404 34.5773 16.102 34.6649 16.6667 34.6666ZM27.5001 50.2666H25.0001V42.4666H23.3334V50.2666H10.0001V42.4666H8.33341V50.2666H5.83341V42.1027C5.83952 40.151 7.09399 38.4417 8.90267 37.9208L12.8333 36.8083L16.1333 39.6681C16.4425 39.9356 16.891 39.9356 17.2002 39.6681L20.5002 36.8083L24.4284 37.92C26.2379 38.4405 27.4932 40.1501 27.5001 42.1027V50.2666Z" fill="#F99D1D"/>
<path d="M25.0001 25.1332V26.8665C28.1646 26.8665 30.8928 24.553 31.53 21.3293C32.1672 18.1059 30.5376 14.8606 27.6299 13.5623C24.7226 12.264 21.3376 13.2703 19.5293 15.971L20.8961 16.9621C22.2519 14.9363 24.7905 14.1814 26.9715 15.1547C29.1525 16.128 30.3748 18.5621 29.8971 20.9797C29.4194 23.3973 27.3735 25.1328 25.0001 25.1332Z" fill="#F99D1D"/>
<path d="M45 0H5C3.61938 0 2.5 1.16416 2.5 2.6V30.3333C2.5 31.7692 3.61938 32.9333 5 32.9333H10V31.2H5C4.53979 31.2 4.16667 30.8119 4.16667 30.3333V9.53333C4.16667 9.05472 4.53979 8.66667 5 8.66667H45C45.4602 8.66667 45.8333 9.05472 45.8333 9.53333V30.3333C45.8333 30.8119 45.4602 31.2 45 31.2H23.3333V32.9333H45C46.3806 32.9333 47.5 31.7692 47.5 30.3333V2.6C47.5 1.16416 46.3806 0 45 0ZM5 1.73333H45C45.4602 1.73333 45.8333 2.12139 45.8333 2.6V3.6262C45.5664 3.52337 45.2844 3.46963 45 3.46667H5C4.71558 3.46963 4.43359 3.52337 4.16667 3.6262V2.6C4.16667 2.12139 4.53979 1.73333 5 1.73333ZM45 6.93333H5C4.71558 6.9363 4.43359 6.99004 4.16667 7.09287V6.06667C4.16667 5.58805 4.53979 5.2 5 5.2H45C45.4602 5.2 45.8333 5.58805 45.8333 6.06667V7.09287C45.5664 6.99004 45.2844 6.9363 45 6.93333Z" fill="#F99D1D"/>
<path d="M11.6667 12.1333H8.33333C7.87313 12.1333 7.5 12.5214 7.5 13V16.4666H9.16667V13.8666H11.6667V12.1333Z" fill="#F99D1D"/>
<path d="M42.4999 16.4666V13C42.4999 12.5214 42.1268 12.1333 41.6666 12.1333H38.3333V13.8666H40.8333V16.4666H42.4999Z" fill="#F99D1D"/>
<path d="M38.3333 27.7332H41.6666C42.1268 27.7332 42.4999 27.3452 42.4999 26.8666V23.3999H40.8333V25.9999H38.3333V27.7332Z" fill="#F99D1D"/>
<path d="M34.1667 19.0667H35.8334V20.8H34.1667V19.0667Z" fill="#F99D1D"/>
</svg>
